G75*
%MOIN*%
%OFA0B0*%
%FSLAX25Y25*%
%IPPOS*%
%LPD*%
%AMOC8*
5,1,8,0,0,1.08239X$1,22.5*
%
%ADD10C,0.00000*%
%ADD11R,0.07874X0.05906*%
D10*
X0001000Y0006757D02*
X0048244Y0006757D01*
X0048244Y0087309D01*
X0099425Y0087309D01*
X0099425Y0006757D01*
X0146669Y0006757D01*
X0146669Y0333608D01*
X0001000Y0333608D01*
X0001000Y0006757D01*
X0048244Y0006600D02*
X0048244Y0006757D01*
X0099425Y0006757D02*
X0099425Y0006600D01*
X0130060Y0208547D02*
X0130062Y0208690D01*
X0130068Y0208833D01*
X0130078Y0208975D01*
X0130092Y0209117D01*
X0130110Y0209259D01*
X0130132Y0209401D01*
X0130157Y0209541D01*
X0130187Y0209681D01*
X0130221Y0209820D01*
X0130258Y0209958D01*
X0130300Y0210095D01*
X0130345Y0210230D01*
X0130394Y0210364D01*
X0130446Y0210497D01*
X0130502Y0210629D01*
X0130562Y0210758D01*
X0130626Y0210886D01*
X0130693Y0211013D01*
X0130764Y0211137D01*
X0130838Y0211259D01*
X0130915Y0211379D01*
X0130996Y0211497D01*
X0131080Y0211613D01*
X0131167Y0211726D01*
X0131257Y0211837D01*
X0131351Y0211945D01*
X0131447Y0212051D01*
X0131546Y0212153D01*
X0131649Y0212253D01*
X0131753Y0212350D01*
X0131861Y0212445D01*
X0131971Y0212536D01*
X0132084Y0212624D01*
X0132199Y0212708D01*
X0132316Y0212790D01*
X0132436Y0212868D01*
X0132557Y0212943D01*
X0132681Y0213015D01*
X0132807Y0213083D01*
X0132934Y0213147D01*
X0133064Y0213208D01*
X0133195Y0213265D01*
X0133327Y0213319D01*
X0133461Y0213368D01*
X0133596Y0213415D01*
X0133733Y0213457D01*
X0133871Y0213495D01*
X0134009Y0213530D01*
X0134149Y0213560D01*
X0134289Y0213587D01*
X0134430Y0213610D01*
X0134572Y0213629D01*
X0134714Y0213644D01*
X0134857Y0213655D01*
X0134999Y0213662D01*
X0135142Y0213665D01*
X0135285Y0213664D01*
X0135428Y0213659D01*
X0135571Y0213650D01*
X0135713Y0213637D01*
X0135855Y0213620D01*
X0135996Y0213599D01*
X0136137Y0213574D01*
X0136277Y0213546D01*
X0136416Y0213513D01*
X0136554Y0213476D01*
X0136691Y0213436D01*
X0136827Y0213392D01*
X0136962Y0213344D01*
X0137095Y0213292D01*
X0137227Y0213237D01*
X0137357Y0213178D01*
X0137486Y0213115D01*
X0137612Y0213049D01*
X0137737Y0212979D01*
X0137860Y0212906D01*
X0137980Y0212830D01*
X0138099Y0212750D01*
X0138215Y0212666D01*
X0138329Y0212580D01*
X0138440Y0212490D01*
X0138549Y0212398D01*
X0138655Y0212302D01*
X0138759Y0212204D01*
X0138860Y0212102D01*
X0138957Y0211998D01*
X0139052Y0211891D01*
X0139144Y0211782D01*
X0139233Y0211670D01*
X0139319Y0211555D01*
X0139401Y0211439D01*
X0139480Y0211319D01*
X0139556Y0211198D01*
X0139628Y0211075D01*
X0139697Y0210950D01*
X0139762Y0210823D01*
X0139824Y0210694D01*
X0139882Y0210563D01*
X0139937Y0210431D01*
X0139987Y0210297D01*
X0140034Y0210162D01*
X0140078Y0210026D01*
X0140117Y0209889D01*
X0140152Y0209750D01*
X0140184Y0209611D01*
X0140212Y0209471D01*
X0140236Y0209330D01*
X0140256Y0209188D01*
X0140272Y0209046D01*
X0140284Y0208904D01*
X0140292Y0208761D01*
X0140296Y0208618D01*
X0140296Y0208476D01*
X0140292Y0208333D01*
X0140284Y0208190D01*
X0140272Y0208048D01*
X0140256Y0207906D01*
X0140236Y0207764D01*
X0140212Y0207623D01*
X0140184Y0207483D01*
X0140152Y0207344D01*
X0140117Y0207205D01*
X0140078Y0207068D01*
X0140034Y0206932D01*
X0139987Y0206797D01*
X0139937Y0206663D01*
X0139882Y0206531D01*
X0139824Y0206400D01*
X0139762Y0206271D01*
X0139697Y0206144D01*
X0139628Y0206019D01*
X0139556Y0205896D01*
X0139480Y0205775D01*
X0139401Y0205655D01*
X0139319Y0205539D01*
X0139233Y0205424D01*
X0139144Y0205312D01*
X0139052Y0205203D01*
X0138957Y0205096D01*
X0138860Y0204992D01*
X0138759Y0204890D01*
X0138655Y0204792D01*
X0138549Y0204696D01*
X0138440Y0204604D01*
X0138329Y0204514D01*
X0138215Y0204428D01*
X0138099Y0204344D01*
X0137980Y0204264D01*
X0137860Y0204188D01*
X0137737Y0204115D01*
X0137612Y0204045D01*
X0137486Y0203979D01*
X0137357Y0203916D01*
X0137227Y0203857D01*
X0137095Y0203802D01*
X0136962Y0203750D01*
X0136827Y0203702D01*
X0136691Y0203658D01*
X0136554Y0203618D01*
X0136416Y0203581D01*
X0136277Y0203548D01*
X0136137Y0203520D01*
X0135996Y0203495D01*
X0135855Y0203474D01*
X0135713Y0203457D01*
X0135571Y0203444D01*
X0135428Y0203435D01*
X0135285Y0203430D01*
X0135142Y0203429D01*
X0134999Y0203432D01*
X0134857Y0203439D01*
X0134714Y0203450D01*
X0134572Y0203465D01*
X0134430Y0203484D01*
X0134289Y0203507D01*
X0134149Y0203534D01*
X0134009Y0203564D01*
X0133871Y0203599D01*
X0133733Y0203637D01*
X0133596Y0203679D01*
X0133461Y0203726D01*
X0133327Y0203775D01*
X0133195Y0203829D01*
X0133064Y0203886D01*
X0132934Y0203947D01*
X0132807Y0204011D01*
X0132681Y0204079D01*
X0132557Y0204151D01*
X0132436Y0204226D01*
X0132316Y0204304D01*
X0132199Y0204386D01*
X0132084Y0204470D01*
X0131971Y0204558D01*
X0131861Y0204649D01*
X0131753Y0204744D01*
X0131649Y0204841D01*
X0131546Y0204941D01*
X0131447Y0205043D01*
X0131351Y0205149D01*
X0131257Y0205257D01*
X0131167Y0205368D01*
X0131080Y0205481D01*
X0130996Y0205597D01*
X0130915Y0205715D01*
X0130838Y0205835D01*
X0130764Y0205957D01*
X0130693Y0206081D01*
X0130626Y0206208D01*
X0130562Y0206336D01*
X0130502Y0206465D01*
X0130446Y0206597D01*
X0130394Y0206730D01*
X0130345Y0206864D01*
X0130300Y0206999D01*
X0130258Y0207136D01*
X0130221Y0207274D01*
X0130187Y0207413D01*
X0130157Y0207553D01*
X0130132Y0207693D01*
X0130110Y0207835D01*
X0130092Y0207977D01*
X0130078Y0208119D01*
X0130068Y0208261D01*
X0130062Y0208404D01*
X0130060Y0208547D01*
X0095173Y0306837D02*
X0095175Y0306971D01*
X0095181Y0307105D01*
X0095191Y0307239D01*
X0095205Y0307373D01*
X0095223Y0307506D01*
X0095244Y0307638D01*
X0095270Y0307770D01*
X0095300Y0307901D01*
X0095333Y0308031D01*
X0095370Y0308159D01*
X0095412Y0308287D01*
X0095456Y0308414D01*
X0095505Y0308539D01*
X0095557Y0308662D01*
X0095613Y0308784D01*
X0095673Y0308905D01*
X0095736Y0309023D01*
X0095802Y0309140D01*
X0095872Y0309254D01*
X0095945Y0309367D01*
X0096022Y0309477D01*
X0096102Y0309585D01*
X0096185Y0309690D01*
X0096271Y0309793D01*
X0096360Y0309893D01*
X0096452Y0309991D01*
X0096547Y0310086D01*
X0096645Y0310178D01*
X0096745Y0310267D01*
X0096848Y0310353D01*
X0096953Y0310436D01*
X0097061Y0310516D01*
X0097171Y0310593D01*
X0097284Y0310666D01*
X0097398Y0310736D01*
X0097515Y0310802D01*
X0097633Y0310865D01*
X0097754Y0310925D01*
X0097876Y0310981D01*
X0097999Y0311033D01*
X0098124Y0311082D01*
X0098251Y0311126D01*
X0098379Y0311168D01*
X0098507Y0311205D01*
X0098637Y0311238D01*
X0098768Y0311268D01*
X0098900Y0311294D01*
X0099032Y0311315D01*
X0099165Y0311333D01*
X0099299Y0311347D01*
X0099433Y0311357D01*
X0099567Y0311363D01*
X0099701Y0311365D01*
X0099835Y0311363D01*
X0099969Y0311357D01*
X0100103Y0311347D01*
X0100237Y0311333D01*
X0100370Y0311315D01*
X0100502Y0311294D01*
X0100634Y0311268D01*
X0100765Y0311238D01*
X0100895Y0311205D01*
X0101023Y0311168D01*
X0101151Y0311126D01*
X0101278Y0311082D01*
X0101403Y0311033D01*
X0101526Y0310981D01*
X0101648Y0310925D01*
X0101769Y0310865D01*
X0101887Y0310802D01*
X0102004Y0310736D01*
X0102118Y0310666D01*
X0102231Y0310593D01*
X0102341Y0310516D01*
X0102449Y0310436D01*
X0102554Y0310353D01*
X0102657Y0310267D01*
X0102757Y0310178D01*
X0102855Y0310086D01*
X0102950Y0309991D01*
X0103042Y0309893D01*
X0103131Y0309793D01*
X0103217Y0309690D01*
X0103300Y0309585D01*
X0103380Y0309477D01*
X0103457Y0309367D01*
X0103530Y0309254D01*
X0103600Y0309140D01*
X0103666Y0309023D01*
X0103729Y0308905D01*
X0103789Y0308784D01*
X0103845Y0308662D01*
X0103897Y0308539D01*
X0103946Y0308414D01*
X0103990Y0308287D01*
X0104032Y0308159D01*
X0104069Y0308031D01*
X0104102Y0307901D01*
X0104132Y0307770D01*
X0104158Y0307638D01*
X0104179Y0307506D01*
X0104197Y0307373D01*
X0104211Y0307239D01*
X0104221Y0307105D01*
X0104227Y0306971D01*
X0104229Y0306837D01*
X0104227Y0306703D01*
X0104221Y0306569D01*
X0104211Y0306435D01*
X0104197Y0306301D01*
X0104179Y0306168D01*
X0104158Y0306036D01*
X0104132Y0305904D01*
X0104102Y0305773D01*
X0104069Y0305643D01*
X0104032Y0305515D01*
X0103990Y0305387D01*
X0103946Y0305260D01*
X0103897Y0305135D01*
X0103845Y0305012D01*
X0103789Y0304890D01*
X0103729Y0304769D01*
X0103666Y0304651D01*
X0103600Y0304534D01*
X0103530Y0304420D01*
X0103457Y0304307D01*
X0103380Y0304197D01*
X0103300Y0304089D01*
X0103217Y0303984D01*
X0103131Y0303881D01*
X0103042Y0303781D01*
X0102950Y0303683D01*
X0102855Y0303588D01*
X0102757Y0303496D01*
X0102657Y0303407D01*
X0102554Y0303321D01*
X0102449Y0303238D01*
X0102341Y0303158D01*
X0102231Y0303081D01*
X0102118Y0303008D01*
X0102004Y0302938D01*
X0101887Y0302872D01*
X0101769Y0302809D01*
X0101648Y0302749D01*
X0101526Y0302693D01*
X0101403Y0302641D01*
X0101278Y0302592D01*
X0101151Y0302548D01*
X0101023Y0302506D01*
X0100895Y0302469D01*
X0100765Y0302436D01*
X0100634Y0302406D01*
X0100502Y0302380D01*
X0100370Y0302359D01*
X0100237Y0302341D01*
X0100103Y0302327D01*
X0099969Y0302317D01*
X0099835Y0302311D01*
X0099701Y0302309D01*
X0099567Y0302311D01*
X0099433Y0302317D01*
X0099299Y0302327D01*
X0099165Y0302341D01*
X0099032Y0302359D01*
X0098900Y0302380D01*
X0098768Y0302406D01*
X0098637Y0302436D01*
X0098507Y0302469D01*
X0098379Y0302506D01*
X0098251Y0302548D01*
X0098124Y0302592D01*
X0097999Y0302641D01*
X0097876Y0302693D01*
X0097754Y0302749D01*
X0097633Y0302809D01*
X0097515Y0302872D01*
X0097398Y0302938D01*
X0097284Y0303008D01*
X0097171Y0303081D01*
X0097061Y0303158D01*
X0096953Y0303238D01*
X0096848Y0303321D01*
X0096745Y0303407D01*
X0096645Y0303496D01*
X0096547Y0303588D01*
X0096452Y0303683D01*
X0096360Y0303781D01*
X0096271Y0303881D01*
X0096185Y0303984D01*
X0096102Y0304089D01*
X0096022Y0304197D01*
X0095945Y0304307D01*
X0095872Y0304420D01*
X0095802Y0304534D01*
X0095736Y0304651D01*
X0095673Y0304769D01*
X0095613Y0304890D01*
X0095557Y0305012D01*
X0095505Y0305135D01*
X0095456Y0305260D01*
X0095412Y0305387D01*
X0095370Y0305515D01*
X0095333Y0305643D01*
X0095300Y0305773D01*
X0095270Y0305904D01*
X0095244Y0306036D01*
X0095223Y0306168D01*
X0095205Y0306301D01*
X0095191Y0306435D01*
X0095181Y0306569D01*
X0095175Y0306703D01*
X0095173Y0306837D01*
X0130060Y0320752D02*
X0130062Y0320895D01*
X0130068Y0321038D01*
X0130078Y0321180D01*
X0130092Y0321322D01*
X0130110Y0321464D01*
X0130132Y0321606D01*
X0130157Y0321746D01*
X0130187Y0321886D01*
X0130221Y0322025D01*
X0130258Y0322163D01*
X0130300Y0322300D01*
X0130345Y0322435D01*
X0130394Y0322569D01*
X0130446Y0322702D01*
X0130502Y0322834D01*
X0130562Y0322963D01*
X0130626Y0323091D01*
X0130693Y0323218D01*
X0130764Y0323342D01*
X0130838Y0323464D01*
X0130915Y0323584D01*
X0130996Y0323702D01*
X0131080Y0323818D01*
X0131167Y0323931D01*
X0131257Y0324042D01*
X0131351Y0324150D01*
X0131447Y0324256D01*
X0131546Y0324358D01*
X0131649Y0324458D01*
X0131753Y0324555D01*
X0131861Y0324650D01*
X0131971Y0324741D01*
X0132084Y0324829D01*
X0132199Y0324913D01*
X0132316Y0324995D01*
X0132436Y0325073D01*
X0132557Y0325148D01*
X0132681Y0325220D01*
X0132807Y0325288D01*
X0132934Y0325352D01*
X0133064Y0325413D01*
X0133195Y0325470D01*
X0133327Y0325524D01*
X0133461Y0325573D01*
X0133596Y0325620D01*
X0133733Y0325662D01*
X0133871Y0325700D01*
X0134009Y0325735D01*
X0134149Y0325765D01*
X0134289Y0325792D01*
X0134430Y0325815D01*
X0134572Y0325834D01*
X0134714Y0325849D01*
X0134857Y0325860D01*
X0134999Y0325867D01*
X0135142Y0325870D01*
X0135285Y0325869D01*
X0135428Y0325864D01*
X0135571Y0325855D01*
X0135713Y0325842D01*
X0135855Y0325825D01*
X0135996Y0325804D01*
X0136137Y0325779D01*
X0136277Y0325751D01*
X0136416Y0325718D01*
X0136554Y0325681D01*
X0136691Y0325641D01*
X0136827Y0325597D01*
X0136962Y0325549D01*
X0137095Y0325497D01*
X0137227Y0325442D01*
X0137357Y0325383D01*
X0137486Y0325320D01*
X0137612Y0325254D01*
X0137737Y0325184D01*
X0137860Y0325111D01*
X0137980Y0325035D01*
X0138099Y0324955D01*
X0138215Y0324871D01*
X0138329Y0324785D01*
X0138440Y0324695D01*
X0138549Y0324603D01*
X0138655Y0324507D01*
X0138759Y0324409D01*
X0138860Y0324307D01*
X0138957Y0324203D01*
X0139052Y0324096D01*
X0139144Y0323987D01*
X0139233Y0323875D01*
X0139319Y0323760D01*
X0139401Y0323644D01*
X0139480Y0323524D01*
X0139556Y0323403D01*
X0139628Y0323280D01*
X0139697Y0323155D01*
X0139762Y0323028D01*
X0139824Y0322899D01*
X0139882Y0322768D01*
X0139937Y0322636D01*
X0139987Y0322502D01*
X0140034Y0322367D01*
X0140078Y0322231D01*
X0140117Y0322094D01*
X0140152Y0321955D01*
X0140184Y0321816D01*
X0140212Y0321676D01*
X0140236Y0321535D01*
X0140256Y0321393D01*
X0140272Y0321251D01*
X0140284Y0321109D01*
X0140292Y0320966D01*
X0140296Y0320823D01*
X0140296Y0320681D01*
X0140292Y0320538D01*
X0140284Y0320395D01*
X0140272Y0320253D01*
X0140256Y0320111D01*
X0140236Y0319969D01*
X0140212Y0319828D01*
X0140184Y0319688D01*
X0140152Y0319549D01*
X0140117Y0319410D01*
X0140078Y0319273D01*
X0140034Y0319137D01*
X0139987Y0319002D01*
X0139937Y0318868D01*
X0139882Y0318736D01*
X0139824Y0318605D01*
X0139762Y0318476D01*
X0139697Y0318349D01*
X0139628Y0318224D01*
X0139556Y0318101D01*
X0139480Y0317980D01*
X0139401Y0317860D01*
X0139319Y0317744D01*
X0139233Y0317629D01*
X0139144Y0317517D01*
X0139052Y0317408D01*
X0138957Y0317301D01*
X0138860Y0317197D01*
X0138759Y0317095D01*
X0138655Y0316997D01*
X0138549Y0316901D01*
X0138440Y0316809D01*
X0138329Y0316719D01*
X0138215Y0316633D01*
X0138099Y0316549D01*
X0137980Y0316469D01*
X0137860Y0316393D01*
X0137737Y0316320D01*
X0137612Y0316250D01*
X0137486Y0316184D01*
X0137357Y0316121D01*
X0137227Y0316062D01*
X0137095Y0316007D01*
X0136962Y0315955D01*
X0136827Y0315907D01*
X0136691Y0315863D01*
X0136554Y0315823D01*
X0136416Y0315786D01*
X0136277Y0315753D01*
X0136137Y0315725D01*
X0135996Y0315700D01*
X0135855Y0315679D01*
X0135713Y0315662D01*
X0135571Y0315649D01*
X0135428Y0315640D01*
X0135285Y0315635D01*
X0135142Y0315634D01*
X0134999Y0315637D01*
X0134857Y0315644D01*
X0134714Y0315655D01*
X0134572Y0315670D01*
X0134430Y0315689D01*
X0134289Y0315712D01*
X0134149Y0315739D01*
X0134009Y0315769D01*
X0133871Y0315804D01*
X0133733Y0315842D01*
X0133596Y0315884D01*
X0133461Y0315931D01*
X0133327Y0315980D01*
X0133195Y0316034D01*
X0133064Y0316091D01*
X0132934Y0316152D01*
X0132807Y0316216D01*
X0132681Y0316284D01*
X0132557Y0316356D01*
X0132436Y0316431D01*
X0132316Y0316509D01*
X0132199Y0316591D01*
X0132084Y0316675D01*
X0131971Y0316763D01*
X0131861Y0316854D01*
X0131753Y0316949D01*
X0131649Y0317046D01*
X0131546Y0317146D01*
X0131447Y0317248D01*
X0131351Y0317354D01*
X0131257Y0317462D01*
X0131167Y0317573D01*
X0131080Y0317686D01*
X0130996Y0317802D01*
X0130915Y0317920D01*
X0130838Y0318040D01*
X0130764Y0318162D01*
X0130693Y0318286D01*
X0130626Y0318413D01*
X0130562Y0318541D01*
X0130502Y0318670D01*
X0130446Y0318802D01*
X0130394Y0318935D01*
X0130345Y0319069D01*
X0130300Y0319204D01*
X0130258Y0319341D01*
X0130221Y0319479D01*
X0130187Y0319618D01*
X0130157Y0319758D01*
X0130132Y0319898D01*
X0130110Y0320040D01*
X0130092Y0320182D01*
X0130078Y0320324D01*
X0130068Y0320466D01*
X0130062Y0320609D01*
X0130060Y0320752D01*
X0043441Y0306837D02*
X0043443Y0306971D01*
X0043449Y0307105D01*
X0043459Y0307239D01*
X0043473Y0307373D01*
X0043491Y0307506D01*
X0043512Y0307638D01*
X0043538Y0307770D01*
X0043568Y0307901D01*
X0043601Y0308031D01*
X0043638Y0308159D01*
X0043680Y0308287D01*
X0043724Y0308414D01*
X0043773Y0308539D01*
X0043825Y0308662D01*
X0043881Y0308784D01*
X0043941Y0308905D01*
X0044004Y0309023D01*
X0044070Y0309140D01*
X0044140Y0309254D01*
X0044213Y0309367D01*
X0044290Y0309477D01*
X0044370Y0309585D01*
X0044453Y0309690D01*
X0044539Y0309793D01*
X0044628Y0309893D01*
X0044720Y0309991D01*
X0044815Y0310086D01*
X0044913Y0310178D01*
X0045013Y0310267D01*
X0045116Y0310353D01*
X0045221Y0310436D01*
X0045329Y0310516D01*
X0045439Y0310593D01*
X0045552Y0310666D01*
X0045666Y0310736D01*
X0045783Y0310802D01*
X0045901Y0310865D01*
X0046022Y0310925D01*
X0046144Y0310981D01*
X0046267Y0311033D01*
X0046392Y0311082D01*
X0046519Y0311126D01*
X0046647Y0311168D01*
X0046775Y0311205D01*
X0046905Y0311238D01*
X0047036Y0311268D01*
X0047168Y0311294D01*
X0047300Y0311315D01*
X0047433Y0311333D01*
X0047567Y0311347D01*
X0047701Y0311357D01*
X0047835Y0311363D01*
X0047969Y0311365D01*
X0048103Y0311363D01*
X0048237Y0311357D01*
X0048371Y0311347D01*
X0048505Y0311333D01*
X0048638Y0311315D01*
X0048770Y0311294D01*
X0048902Y0311268D01*
X0049033Y0311238D01*
X0049163Y0311205D01*
X0049291Y0311168D01*
X0049419Y0311126D01*
X0049546Y0311082D01*
X0049671Y0311033D01*
X0049794Y0310981D01*
X0049916Y0310925D01*
X0050037Y0310865D01*
X0050155Y0310802D01*
X0050272Y0310736D01*
X0050386Y0310666D01*
X0050499Y0310593D01*
X0050609Y0310516D01*
X0050717Y0310436D01*
X0050822Y0310353D01*
X0050925Y0310267D01*
X0051025Y0310178D01*
X0051123Y0310086D01*
X0051218Y0309991D01*
X0051310Y0309893D01*
X0051399Y0309793D01*
X0051485Y0309690D01*
X0051568Y0309585D01*
X0051648Y0309477D01*
X0051725Y0309367D01*
X0051798Y0309254D01*
X0051868Y0309140D01*
X0051934Y0309023D01*
X0051997Y0308905D01*
X0052057Y0308784D01*
X0052113Y0308662D01*
X0052165Y0308539D01*
X0052214Y0308414D01*
X0052258Y0308287D01*
X0052300Y0308159D01*
X0052337Y0308031D01*
X0052370Y0307901D01*
X0052400Y0307770D01*
X0052426Y0307638D01*
X0052447Y0307506D01*
X0052465Y0307373D01*
X0052479Y0307239D01*
X0052489Y0307105D01*
X0052495Y0306971D01*
X0052497Y0306837D01*
X0052495Y0306703D01*
X0052489Y0306569D01*
X0052479Y0306435D01*
X0052465Y0306301D01*
X0052447Y0306168D01*
X0052426Y0306036D01*
X0052400Y0305904D01*
X0052370Y0305773D01*
X0052337Y0305643D01*
X0052300Y0305515D01*
X0052258Y0305387D01*
X0052214Y0305260D01*
X0052165Y0305135D01*
X0052113Y0305012D01*
X0052057Y0304890D01*
X0051997Y0304769D01*
X0051934Y0304651D01*
X0051868Y0304534D01*
X0051798Y0304420D01*
X0051725Y0304307D01*
X0051648Y0304197D01*
X0051568Y0304089D01*
X0051485Y0303984D01*
X0051399Y0303881D01*
X0051310Y0303781D01*
X0051218Y0303683D01*
X0051123Y0303588D01*
X0051025Y0303496D01*
X0050925Y0303407D01*
X0050822Y0303321D01*
X0050717Y0303238D01*
X0050609Y0303158D01*
X0050499Y0303081D01*
X0050386Y0303008D01*
X0050272Y0302938D01*
X0050155Y0302872D01*
X0050037Y0302809D01*
X0049916Y0302749D01*
X0049794Y0302693D01*
X0049671Y0302641D01*
X0049546Y0302592D01*
X0049419Y0302548D01*
X0049291Y0302506D01*
X0049163Y0302469D01*
X0049033Y0302436D01*
X0048902Y0302406D01*
X0048770Y0302380D01*
X0048638Y0302359D01*
X0048505Y0302341D01*
X0048371Y0302327D01*
X0048237Y0302317D01*
X0048103Y0302311D01*
X0047969Y0302309D01*
X0047835Y0302311D01*
X0047701Y0302317D01*
X0047567Y0302327D01*
X0047433Y0302341D01*
X0047300Y0302359D01*
X0047168Y0302380D01*
X0047036Y0302406D01*
X0046905Y0302436D01*
X0046775Y0302469D01*
X0046647Y0302506D01*
X0046519Y0302548D01*
X0046392Y0302592D01*
X0046267Y0302641D01*
X0046144Y0302693D01*
X0046022Y0302749D01*
X0045901Y0302809D01*
X0045783Y0302872D01*
X0045666Y0302938D01*
X0045552Y0303008D01*
X0045439Y0303081D01*
X0045329Y0303158D01*
X0045221Y0303238D01*
X0045116Y0303321D01*
X0045013Y0303407D01*
X0044913Y0303496D01*
X0044815Y0303588D01*
X0044720Y0303683D01*
X0044628Y0303781D01*
X0044539Y0303881D01*
X0044453Y0303984D01*
X0044370Y0304089D01*
X0044290Y0304197D01*
X0044213Y0304307D01*
X0044140Y0304420D01*
X0044070Y0304534D01*
X0044004Y0304651D01*
X0043941Y0304769D01*
X0043881Y0304890D01*
X0043825Y0305012D01*
X0043773Y0305135D01*
X0043724Y0305260D01*
X0043680Y0305387D01*
X0043638Y0305515D01*
X0043601Y0305643D01*
X0043568Y0305773D01*
X0043538Y0305904D01*
X0043512Y0306036D01*
X0043491Y0306168D01*
X0043473Y0306301D01*
X0043459Y0306435D01*
X0043449Y0306569D01*
X0043443Y0306703D01*
X0043441Y0306837D01*
X0008013Y0320752D02*
X0008015Y0320895D01*
X0008021Y0321038D01*
X0008031Y0321180D01*
X0008045Y0321322D01*
X0008063Y0321464D01*
X0008085Y0321606D01*
X0008110Y0321746D01*
X0008140Y0321886D01*
X0008174Y0322025D01*
X0008211Y0322163D01*
X0008253Y0322300D01*
X0008298Y0322435D01*
X0008347Y0322569D01*
X0008399Y0322702D01*
X0008455Y0322834D01*
X0008515Y0322963D01*
X0008579Y0323091D01*
X0008646Y0323218D01*
X0008717Y0323342D01*
X0008791Y0323464D01*
X0008868Y0323584D01*
X0008949Y0323702D01*
X0009033Y0323818D01*
X0009120Y0323931D01*
X0009210Y0324042D01*
X0009304Y0324150D01*
X0009400Y0324256D01*
X0009499Y0324358D01*
X0009602Y0324458D01*
X0009706Y0324555D01*
X0009814Y0324650D01*
X0009924Y0324741D01*
X0010037Y0324829D01*
X0010152Y0324913D01*
X0010269Y0324995D01*
X0010389Y0325073D01*
X0010510Y0325148D01*
X0010634Y0325220D01*
X0010760Y0325288D01*
X0010887Y0325352D01*
X0011017Y0325413D01*
X0011148Y0325470D01*
X0011280Y0325524D01*
X0011414Y0325573D01*
X0011549Y0325620D01*
X0011686Y0325662D01*
X0011824Y0325700D01*
X0011962Y0325735D01*
X0012102Y0325765D01*
X0012242Y0325792D01*
X0012383Y0325815D01*
X0012525Y0325834D01*
X0012667Y0325849D01*
X0012810Y0325860D01*
X0012952Y0325867D01*
X0013095Y0325870D01*
X0013238Y0325869D01*
X0013381Y0325864D01*
X0013524Y0325855D01*
X0013666Y0325842D01*
X0013808Y0325825D01*
X0013949Y0325804D01*
X0014090Y0325779D01*
X0014230Y0325751D01*
X0014369Y0325718D01*
X0014507Y0325681D01*
X0014644Y0325641D01*
X0014780Y0325597D01*
X0014915Y0325549D01*
X0015048Y0325497D01*
X0015180Y0325442D01*
X0015310Y0325383D01*
X0015439Y0325320D01*
X0015565Y0325254D01*
X0015690Y0325184D01*
X0015813Y0325111D01*
X0015933Y0325035D01*
X0016052Y0324955D01*
X0016168Y0324871D01*
X0016282Y0324785D01*
X0016393Y0324695D01*
X0016502Y0324603D01*
X0016608Y0324507D01*
X0016712Y0324409D01*
X0016813Y0324307D01*
X0016910Y0324203D01*
X0017005Y0324096D01*
X0017097Y0323987D01*
X0017186Y0323875D01*
X0017272Y0323760D01*
X0017354Y0323644D01*
X0017433Y0323524D01*
X0017509Y0323403D01*
X0017581Y0323280D01*
X0017650Y0323155D01*
X0017715Y0323028D01*
X0017777Y0322899D01*
X0017835Y0322768D01*
X0017890Y0322636D01*
X0017940Y0322502D01*
X0017987Y0322367D01*
X0018031Y0322231D01*
X0018070Y0322094D01*
X0018105Y0321955D01*
X0018137Y0321816D01*
X0018165Y0321676D01*
X0018189Y0321535D01*
X0018209Y0321393D01*
X0018225Y0321251D01*
X0018237Y0321109D01*
X0018245Y0320966D01*
X0018249Y0320823D01*
X0018249Y0320681D01*
X0018245Y0320538D01*
X0018237Y0320395D01*
X0018225Y0320253D01*
X0018209Y0320111D01*
X0018189Y0319969D01*
X0018165Y0319828D01*
X0018137Y0319688D01*
X0018105Y0319549D01*
X0018070Y0319410D01*
X0018031Y0319273D01*
X0017987Y0319137D01*
X0017940Y0319002D01*
X0017890Y0318868D01*
X0017835Y0318736D01*
X0017777Y0318605D01*
X0017715Y0318476D01*
X0017650Y0318349D01*
X0017581Y0318224D01*
X0017509Y0318101D01*
X0017433Y0317980D01*
X0017354Y0317860D01*
X0017272Y0317744D01*
X0017186Y0317629D01*
X0017097Y0317517D01*
X0017005Y0317408D01*
X0016910Y0317301D01*
X0016813Y0317197D01*
X0016712Y0317095D01*
X0016608Y0316997D01*
X0016502Y0316901D01*
X0016393Y0316809D01*
X0016282Y0316719D01*
X0016168Y0316633D01*
X0016052Y0316549D01*
X0015933Y0316469D01*
X0015813Y0316393D01*
X0015690Y0316320D01*
X0015565Y0316250D01*
X0015439Y0316184D01*
X0015310Y0316121D01*
X0015180Y0316062D01*
X0015048Y0316007D01*
X0014915Y0315955D01*
X0014780Y0315907D01*
X0014644Y0315863D01*
X0014507Y0315823D01*
X0014369Y0315786D01*
X0014230Y0315753D01*
X0014090Y0315725D01*
X0013949Y0315700D01*
X0013808Y0315679D01*
X0013666Y0315662D01*
X0013524Y0315649D01*
X0013381Y0315640D01*
X0013238Y0315635D01*
X0013095Y0315634D01*
X0012952Y0315637D01*
X0012810Y0315644D01*
X0012667Y0315655D01*
X0012525Y0315670D01*
X0012383Y0315689D01*
X0012242Y0315712D01*
X0012102Y0315739D01*
X0011962Y0315769D01*
X0011824Y0315804D01*
X0011686Y0315842D01*
X0011549Y0315884D01*
X0011414Y0315931D01*
X0011280Y0315980D01*
X0011148Y0316034D01*
X0011017Y0316091D01*
X0010887Y0316152D01*
X0010760Y0316216D01*
X0010634Y0316284D01*
X0010510Y0316356D01*
X0010389Y0316431D01*
X0010269Y0316509D01*
X0010152Y0316591D01*
X0010037Y0316675D01*
X0009924Y0316763D01*
X0009814Y0316854D01*
X0009706Y0316949D01*
X0009602Y0317046D01*
X0009499Y0317146D01*
X0009400Y0317248D01*
X0009304Y0317354D01*
X0009210Y0317462D01*
X0009120Y0317573D01*
X0009033Y0317686D01*
X0008949Y0317802D01*
X0008868Y0317920D01*
X0008791Y0318040D01*
X0008717Y0318162D01*
X0008646Y0318286D01*
X0008579Y0318413D01*
X0008515Y0318541D01*
X0008455Y0318670D01*
X0008399Y0318802D01*
X0008347Y0318935D01*
X0008298Y0319069D01*
X0008253Y0319204D01*
X0008211Y0319341D01*
X0008174Y0319479D01*
X0008140Y0319618D01*
X0008110Y0319758D01*
X0008085Y0319898D01*
X0008063Y0320040D01*
X0008045Y0320182D01*
X0008031Y0320324D01*
X0008021Y0320466D01*
X0008015Y0320609D01*
X0008013Y0320752D01*
X0008013Y0208547D02*
X0008015Y0208690D01*
X0008021Y0208833D01*
X0008031Y0208975D01*
X0008045Y0209117D01*
X0008063Y0209259D01*
X0008085Y0209401D01*
X0008110Y0209541D01*
X0008140Y0209681D01*
X0008174Y0209820D01*
X0008211Y0209958D01*
X0008253Y0210095D01*
X0008298Y0210230D01*
X0008347Y0210364D01*
X0008399Y0210497D01*
X0008455Y0210629D01*
X0008515Y0210758D01*
X0008579Y0210886D01*
X0008646Y0211013D01*
X0008717Y0211137D01*
X0008791Y0211259D01*
X0008868Y0211379D01*
X0008949Y0211497D01*
X0009033Y0211613D01*
X0009120Y0211726D01*
X0009210Y0211837D01*
X0009304Y0211945D01*
X0009400Y0212051D01*
X0009499Y0212153D01*
X0009602Y0212253D01*
X0009706Y0212350D01*
X0009814Y0212445D01*
X0009924Y0212536D01*
X0010037Y0212624D01*
X0010152Y0212708D01*
X0010269Y0212790D01*
X0010389Y0212868D01*
X0010510Y0212943D01*
X0010634Y0213015D01*
X0010760Y0213083D01*
X0010887Y0213147D01*
X0011017Y0213208D01*
X0011148Y0213265D01*
X0011280Y0213319D01*
X0011414Y0213368D01*
X0011549Y0213415D01*
X0011686Y0213457D01*
X0011824Y0213495D01*
X0011962Y0213530D01*
X0012102Y0213560D01*
X0012242Y0213587D01*
X0012383Y0213610D01*
X0012525Y0213629D01*
X0012667Y0213644D01*
X0012810Y0213655D01*
X0012952Y0213662D01*
X0013095Y0213665D01*
X0013238Y0213664D01*
X0013381Y0213659D01*
X0013524Y0213650D01*
X0013666Y0213637D01*
X0013808Y0213620D01*
X0013949Y0213599D01*
X0014090Y0213574D01*
X0014230Y0213546D01*
X0014369Y0213513D01*
X0014507Y0213476D01*
X0014644Y0213436D01*
X0014780Y0213392D01*
X0014915Y0213344D01*
X0015048Y0213292D01*
X0015180Y0213237D01*
X0015310Y0213178D01*
X0015439Y0213115D01*
X0015565Y0213049D01*
X0015690Y0212979D01*
X0015813Y0212906D01*
X0015933Y0212830D01*
X0016052Y0212750D01*
X0016168Y0212666D01*
X0016282Y0212580D01*
X0016393Y0212490D01*
X0016502Y0212398D01*
X0016608Y0212302D01*
X0016712Y0212204D01*
X0016813Y0212102D01*
X0016910Y0211998D01*
X0017005Y0211891D01*
X0017097Y0211782D01*
X0017186Y0211670D01*
X0017272Y0211555D01*
X0017354Y0211439D01*
X0017433Y0211319D01*
X0017509Y0211198D01*
X0017581Y0211075D01*
X0017650Y0210950D01*
X0017715Y0210823D01*
X0017777Y0210694D01*
X0017835Y0210563D01*
X0017890Y0210431D01*
X0017940Y0210297D01*
X0017987Y0210162D01*
X0018031Y0210026D01*
X0018070Y0209889D01*
X0018105Y0209750D01*
X0018137Y0209611D01*
X0018165Y0209471D01*
X0018189Y0209330D01*
X0018209Y0209188D01*
X0018225Y0209046D01*
X0018237Y0208904D01*
X0018245Y0208761D01*
X0018249Y0208618D01*
X0018249Y0208476D01*
X0018245Y0208333D01*
X0018237Y0208190D01*
X0018225Y0208048D01*
X0018209Y0207906D01*
X0018189Y0207764D01*
X0018165Y0207623D01*
X0018137Y0207483D01*
X0018105Y0207344D01*
X0018070Y0207205D01*
X0018031Y0207068D01*
X0017987Y0206932D01*
X0017940Y0206797D01*
X0017890Y0206663D01*
X0017835Y0206531D01*
X0017777Y0206400D01*
X0017715Y0206271D01*
X0017650Y0206144D01*
X0017581Y0206019D01*
X0017509Y0205896D01*
X0017433Y0205775D01*
X0017354Y0205655D01*
X0017272Y0205539D01*
X0017186Y0205424D01*
X0017097Y0205312D01*
X0017005Y0205203D01*
X0016910Y0205096D01*
X0016813Y0204992D01*
X0016712Y0204890D01*
X0016608Y0204792D01*
X0016502Y0204696D01*
X0016393Y0204604D01*
X0016282Y0204514D01*
X0016168Y0204428D01*
X0016052Y0204344D01*
X0015933Y0204264D01*
X0015813Y0204188D01*
X0015690Y0204115D01*
X0015565Y0204045D01*
X0015439Y0203979D01*
X0015310Y0203916D01*
X0015180Y0203857D01*
X0015048Y0203802D01*
X0014915Y0203750D01*
X0014780Y0203702D01*
X0014644Y0203658D01*
X0014507Y0203618D01*
X0014369Y0203581D01*
X0014230Y0203548D01*
X0014090Y0203520D01*
X0013949Y0203495D01*
X0013808Y0203474D01*
X0013666Y0203457D01*
X0013524Y0203444D01*
X0013381Y0203435D01*
X0013238Y0203430D01*
X0013095Y0203429D01*
X0012952Y0203432D01*
X0012810Y0203439D01*
X0012667Y0203450D01*
X0012525Y0203465D01*
X0012383Y0203484D01*
X0012242Y0203507D01*
X0012102Y0203534D01*
X0011962Y0203564D01*
X0011824Y0203599D01*
X0011686Y0203637D01*
X0011549Y0203679D01*
X0011414Y0203726D01*
X0011280Y0203775D01*
X0011148Y0203829D01*
X0011017Y0203886D01*
X0010887Y0203947D01*
X0010760Y0204011D01*
X0010634Y0204079D01*
X0010510Y0204151D01*
X0010389Y0204226D01*
X0010269Y0204304D01*
X0010152Y0204386D01*
X0010037Y0204470D01*
X0009924Y0204558D01*
X0009814Y0204649D01*
X0009706Y0204744D01*
X0009602Y0204841D01*
X0009499Y0204941D01*
X0009400Y0205043D01*
X0009304Y0205149D01*
X0009210Y0205257D01*
X0009120Y0205368D01*
X0009033Y0205481D01*
X0008949Y0205597D01*
X0008868Y0205715D01*
X0008791Y0205835D01*
X0008717Y0205957D01*
X0008646Y0206081D01*
X0008579Y0206208D01*
X0008515Y0206336D01*
X0008455Y0206465D01*
X0008399Y0206597D01*
X0008347Y0206730D01*
X0008298Y0206864D01*
X0008253Y0206999D01*
X0008211Y0207136D01*
X0008174Y0207274D01*
X0008140Y0207413D01*
X0008110Y0207553D01*
X0008085Y0207693D01*
X0008063Y0207835D01*
X0008045Y0207977D01*
X0008031Y0208119D01*
X0008021Y0208261D01*
X0008015Y0208404D01*
X0008013Y0208547D01*
D11*
X0020685Y0276443D03*
X0020685Y0288254D03*
X0032496Y0288254D03*
X0032496Y0276443D03*
M02*
