%
M48
M72
T01C0.0236
T02C0.0315
T03C0.0394
T04C0.0400
T05C0.0906
T06C0.1024
%
T01
X2069Y26660
X6990Y27447
T02
X4403Y1160
X4403Y2160
X4403Y3160
X4403Y4160
X4403Y5160
X4403Y6160
X4403Y7160
X4403Y8160
X4403Y9160
X5403Y9160
X6403Y9160
X7403Y9160
X8403Y9160
X9403Y9160
X10403Y9160
X10403Y8160
X10403Y7160
X10403Y6160
X10403Y5160
X10403Y4160
X10403Y3160
X10403Y2160
X10403Y1160
T03
X8912Y20467
X7915Y20461
X6912Y20467
X5912Y20467
X6005Y29617
X6990Y29617
X7777Y29617
X8761Y29617
T04
X6103Y11703
X6103Y13483
X6103Y14459
X6103Y16239
X6103Y17215
X6103Y18995
X4726Y16239
X4726Y14459
X2166Y14459
X2166Y16239
X8663Y18995
X8663Y17215
X8663Y16239
X8663Y14459
X8663Y13483
X8663Y11703
X10040Y14459
X10040Y16239
X12600Y16239
X12600Y14459
T05
X4797Y30684
X9970Y30684
T06
X1313Y20855
X1313Y32075
X13518Y32075
X13518Y20855
M30
